<?xml version="1.0" encoding="UTF-8" standalone="no"?><!DOCTYPE svg PUBLIC "-//W3C//DTD SVG 1.1//EN" "http://www.w3.org/Graphics/SVG/1.1/DTD/svg11.dtd"><svg width="100%" height="100%" viewBox="0 0 225 225" version="1.1" xmlns="http://www.w3.org/2000/svg" xmlns:xlink="http://www.w3.org/1999/xlink" xml:space="preserve" xmlns:serif="http://www.serif.com/" style="fill-rule:evenodd;clip-rule:evenodd;stroke-linejoin:round;stroke-miterlimit:2;"><g id="Arrière-plan"><path d="M18.282,23.573c2.501,-1.835 5.705,-6.91 12.829,-7.022c6.39,-0.1 148.113,0.141 162.01,-0.112c10.266,-0.187 15.24,9.028 15.341,14.67c0.06,3.386 -0.051,146.754 0.065,162.015c0.011,1.476 0.088,11.576 -10.931,14.862c-3.696,1.102 -139.924,0.166 -166.467,0.537c-4.21,0.059 -14.347,-3.145 -14.6,-15.391c-0.042,-2.04 0.061,-156.383 -0.053,-161.254c-0.078,-3.331 0.93,-5.016 1.805,-8.305Z" style="fill:#d4b32e;fill-opacity:1;"/><path d="M137.415,124.668c5.35,2.474 60.684,-1.007 64.581,1.894c3.192,2.375 2.729,3.19 2.729,48.564c-0,22.255 1.316,29.206 -5.572,29.543c-2.01,0.098 -67.489,0.337 -69.069,-0.138c-5.69,-1.712 -4.531,-3.96 -4.617,-55.652c-0.001,-0.301 -0.003,-1.943 -0.551,-3.725c0.888,-2.988 0.357,-5.264 0.491,-13.54c0.118,-7.304 9.669,-5.677 12.007,-6.945Z" style="fill:#f2eddd;"/><path d="M137.415,124.668c-2.338,1.269 -11.889,-0.359 -12.007,6.945c-0.134,8.276 0.397,10.552 -0.491,13.54c-50.384,20.451 -48.668,-80.483 -3.892,-67.915c12.01,3.371 18.973,17.75 11.375,17.881c-4.196,0.072 -7.584,1.126 -10.114,-3.037c-5.586,-9.191 -16.46,-5.563 -19.324,4.238c-0.196,0.672 -3.401,11.641 0.69,8.718c1.518,-1.085 11.747,-8.396 23.273,-1.577c11.612,6.87 10.432,16.451 10.49,21.207Z" style="fill:#020000;"/><path d="M101.962,124.12c0.113,-0.625 0.245,-12.358 9.436,-13.339c7.774,-0.829 10.46,5.091 10.87,5.996c8.618,19.001 -17.961,29.16 -20.306,7.343Z" style="fill:#d3b334;"/><path d="M155.199,160.917c0.519,-1.381 1.468,-9.81 10.175,-10.594c2.57,-0.231 7.069,1.415 8.636,4.732c0.993,2.103 -1.013,5.685 -5.719,0.648c-2.724,-2.916 -6.834,0.022 -7.623,4.383c-0.734,4.06 2.127,-0.012 6.204,0.198c16.031,0.825 6.388,26.986 -7.219,17.478c-5.391,-3.767 -4.553,-15.454 -4.454,-16.845Z" style="fill:#020000;"/><path d="M165.381,164.378c9.867,2.699 1.588,14.903 -2.975,9.221c-2.751,-3.424 -2.32,-8.427 2.975,-9.221Z" style="fill:#f1ede1;"/></g></svg>